<svg xmlns="http://www.w3.org/2000/svg" viewBox="0 0 490.094 490.094" width="512" height="512"><path d="M260.148 15.1c-68.436 0-129.865 29.913-171.981 77.364-3.254 2.074-27.849 40.455-18.931 49.37 8.919 8.92 55.231-28.185 55.231-28.185 34.334-35.449 82.432-57.487 135.681-57.487 104.319 0 188.885 84.565 188.885 188.884 0 104.318-84.567 188.885-188.885 188.885-98.783 0-179.841-75.836-188.165-172.46h34.582a5.76 5.76 0 0 0 5.761-5.761s-47.522-89.284-51.842-93.606c-4.321-4.321-8.64 0-8.64 0L0 255.711a5.76 5.76 0 0 0 5.759 5.761H30.79C39.214 380.8 138.675 474.994 260.148 474.994c126.996 0 229.946-102.951 229.946-229.948S387.144 15.1 260.148 15.1z" fill="#FFF"/></svg>
